<svg width="40" height="40" viewBox="0 0 40 40" fill="none" xmlns="http://www.w3.org/2000/svg">
<g clip-path="url(#clip0_232_142)">
<path d="M39 1H1V39H39V1Z" stroke="black" stroke-width="2"/>
<path d="M15.6607 17.5044H8.75V19.152H15.6607V17.5044Z" fill="black"/>
<path d="M15.6607 24.749H8.75V26.3967H15.6607V24.749Z" fill="black"/>
<rect x="8.75" y="10.4536" width="1.69378" height="17.7985" fill="black"/>
<rect x="13.9669" y="10.4536" width="1.69378" height="15.9431" fill="black"/>
<path d="M15.6607 10.4536H8.75V12.1013H15.6607V10.4536Z" fill="black"/>
<path d="M26.0767 17.8433H27.8649V29.0133C27.8649 29.5302 27.7924 29.926 27.6474 30.2006C27.5024 30.4914 27.2446 30.7014 26.8741 30.8306C26.4875 30.976 25.98 31.0648 25.3517 31.0971C24.7234 31.1294 23.9179 31.1456 22.9352 31.1456C22.903 30.9033 22.8225 30.6125 22.6936 30.2733C22.5808 29.9502 22.46 29.6675 22.3311 29.4252C23.0722 29.4414 23.7488 29.4495 24.361 29.4495C24.9731 29.4656 25.3759 29.4656 25.5692 29.4495C25.7625 29.4495 25.8914 29.4172 25.9558 29.3525C26.0364 29.2879 26.0767 29.1668 26.0767 28.9891V17.8433Z" fill="black"/>
<path d="M19.8421 23.3193L18.3922 24.1674C18.795 24.6035 19.1977 25.0801 19.6005 25.597C20.0032 26.0977 20.3657 26.5985 20.6879 27.0992C21.0262 27.5838 21.2839 28.028 21.4611 28.4319L23.0077 27.4869C22.8305 27.0831 22.5647 26.6389 22.2102 26.1543C21.8719 25.6697 21.4934 25.177 21.0745 24.6762C20.6556 24.1755 20.2448 23.7232 19.8421 23.3193Z" fill="black"/>
<path d="M16.4811 16.4619H31.25V18.1096H16.4811V16.4619Z" fill="black"/>
<path d="M22.9715 8.854H24.7597V17.4799H22.9715V8.854Z" fill="black"/>
<path d="M17.8123 11.7617H29.9188V12.5734V13.3851H17.8123V11.7617Z" fill="black"/>
<path d="M16.4811 20.8237H31.25V22.4714H16.4811V20.8237Z" fill="black"/>
</g>
<defs>
<clipPath id="clip0_232_142">
<rect width="40" height="40" fill="white"/>
</clipPath>
</defs>
</svg>
